<svg width="851" height="198" viewBox="0 0 851 198" fill="none" xmlns="http://www.w3.org/2000/svg">
<path d="M40.2298 111.184C40.1039 111.749 40.0385 112.331 40.0385 112.924V131.796C40.0385 134.626 41.5339 137.245 43.9711 138.684L107.119 175.97C109.628 177.451 112.745 177.451 115.254 175.97L178.402 138.684C180.839 137.245 182.335 134.626 182.335 131.796V112.924C182.335 112.331 182.269 111.749 182.143 111.184C181.49 111.843 180.747 112.424 179.927 112.908L116.779 150.193C113.329 152.23 109.044 152.23 105.594 150.193L42.4458 112.908C41.6259 112.424 40.8835 111.843 40.2298 111.184Z" fill="black"/>
<path fill-rule="evenodd" clip-rule="evenodd" d="M78.5889 57.2353L90.888 49.9735C91.8089 52.1236 93.4075 53.9617 95.5 55.1699L105.687 61.0511C109.09 63.016 113.283 63.016 116.687 61.0511L126.873 55.1699C128.966 53.9617 130.564 52.1236 131.485 49.9735L143.784 57.2353C143.274 58.5133 143 59.8945 143 61.3143V73.6857C143 77.5754 145.054 81.1759 148.403 83.1551L158.589 89.1763C162.042 91.2171 166.331 91.2171 169.784 89.1763L179.97 83.1551C180.645 82.7561 181.268 82.2912 181.831 81.7714C182.159 82.6517 182.335 83.5955 182.335 84.564V103.436C182.335 106.266 180.839 108.886 178.402 110.325L115.254 147.61C112.745 149.092 109.628 149.092 107.119 147.61L43.9711 110.325C41.5339 108.886 40.0385 106.266 40.0385 103.436V84.564C40.0385 83.5955 40.2136 82.6517 40.5416 81.7714C41.1052 82.2912 41.7276 82.7561 42.4027 83.1551L52.5892 89.1763C56.0417 91.2171 60.3313 91.2171 63.7839 89.1763L73.9704 83.1551C77.3189 81.1759 79.3731 77.5754 79.3731 73.6857V61.3143C79.3731 59.8945 79.0994 58.5133 78.5889 57.2353ZM126.873 83.5925L116.687 77.7113C113.283 75.7463 109.09 75.7463 105.687 77.7113L95.5 83.5925C92.0966 85.5574 90 89.1888 90 93.1187V104.881C90 108.811 92.0966 112.442 95.5 114.407L105.687 120.289C109.09 122.254 113.283 122.254 116.687 120.289L126.873 114.407C130.276 112.442 132.373 108.811 132.373 104.881V93.1187C132.373 89.1888 130.276 85.5574 126.873 83.5925Z" fill="black"/>
<path d="M107.187 21.0718C109.662 19.6427 112.711 19.6427 115.187 21.0718L125.373 26.953C127.848 28.3821 129.373 31.0231 129.373 33.8812V45.6436C129.373 48.5017 127.848 51.1427 125.373 52.5718L115.187 58.453C112.711 59.8821 109.662 59.8821 107.187 58.453L97 52.5718C94.5248 51.1427 93 48.5017 93 45.6436V33.8812C93 31.0231 94.5248 28.3821 97 26.953L107.187 21.0718Z" fill="black"/>
<path d="M54.1157 48.4032C56.6267 46.919 59.7464 46.919 62.2573 48.4032L72.4439 54.4244C74.8791 55.8639 76.3731 58.4824 76.3731 61.3113V73.6827C76.3731 76.5115 74.8791 79.13 72.4439 80.5695L62.2573 86.5907C59.7464 88.0749 56.6267 88.0749 54.1157 86.5907L43.9292 80.5695C41.494 79.13 40 76.5115 40 73.6827V61.3113C40 58.4824 41.494 55.8639 43.9292 54.4244L54.1157 48.4032Z" fill="black"/>
<path d="M160.116 48.4062C162.627 46.922 165.746 46.922 168.257 48.4062L178.444 54.4275C180.879 55.8669 182.373 58.4855 182.373 61.3143V73.6857C182.373 76.5146 180.879 79.1331 178.444 80.5726L168.257 86.5938C165.746 88.078 162.627 88.078 160.116 86.5938L149.929 80.5726C147.494 79.1331 146 76.5146 146 73.6857V61.3143C146 58.4855 147.494 55.8669 149.929 54.4275L160.116 48.4062Z" fill="black"/>
<path d="M107.187 80.3093C109.662 78.8803 112.711 78.8803 115.187 80.3093L125.373 86.1905C127.848 87.6196 129.373 90.2606 129.373 93.1187V104.881C129.373 107.739 127.848 110.38 125.373 111.809L115.187 117.691C112.711 119.12 109.662 119.12 107.187 117.691L97 111.809C94.5248 110.38 93 107.739 93 104.881V93.1187C93 90.2606 94.5248 87.6196 97 86.1905L107.187 80.3093Z" fill="#00B42B"/>
<path d="M128.932 31.2624C128.312 33.0531 127.064 34.5954 125.373 35.5718L115.187 41.453C112.711 42.8821 109.662 42.8821 107.187 41.453L97 35.5718C95.3088 34.5954 94.0613 33.0531 93.4407 31.2624C94.0613 29.4717 95.3088 27.9294 97 26.953L107.187 21.0718C109.662 19.6427 112.711 19.6427 115.187 21.0718L125.373 26.953C127.064 27.9294 128.312 29.4717 128.932 31.2624Z" fill="#333333"/>
<path d="M62.2573 48.4062C59.7464 46.922 56.6267 46.922 54.1157 48.4062L43.9292 54.4275C42.3412 55.3661 41.1535 56.8062 40.5192 58.479C41.1631 60.1772 42.3773 61.6349 44 62.5718L54.1865 68.453C56.6617 69.8821 59.7113 69.8821 62.1865 68.453L72.3731 62.5718C73.9957 61.635 75.2099 60.1772 75.8539 58.479C75.2196 56.8062 74.0319 55.3661 72.4439 54.4275L62.2573 48.4062Z" fill="#333333"/>
<path fill-rule="evenodd" clip-rule="evenodd" d="M78.589 57.2354L90.888 49.9735C91.8089 52.1236 93.4075 53.9617 95.5 55.1698L105.687 61.051C109.09 63.016 113.283 63.016 116.687 61.051L126.873 55.1698C128.966 53.9617 130.564 52.1236 131.485 49.9735L143.784 57.2354C143.274 58.5133 143 59.8945 143 61.3143V73.6857C143 77.5753 145.054 81.1758 148.403 83.1551L158.589 89.1763C161.783 91.0641 165.693 91.2056 168.994 89.6009L116.687 120.5C112.187 123 108.687 122 105.687 120.5L53.379 89.6008C56.6802 91.2056 60.5902 91.0641 63.7839 89.1763L73.9704 83.1551C77.3189 81.1758 79.3731 77.5753 79.3731 73.6857V61.3143C79.3731 59.8945 79.0994 58.5133 78.589 57.2354ZM126.873 83.5924L116.687 77.7112C113.283 75.7463 109.09 75.7463 105.687 77.7112L95.5 83.5924C92.0966 85.5574 90 89.1888 90 93.1187V104.881C90 108.811 92.0966 112.442 95.5 114.407L105.687 120.289C109.09 122.254 113.283 122.254 116.687 120.289L126.873 114.407C130.276 112.442 132.373 108.811 132.373 104.881V93.1187C132.373 89.1888 130.276 85.5574 126.873 83.5924Z" fill="#333333"/>
<path d="M168.257 48.4062C165.746 46.922 162.627 46.922 160.116 48.4062L149.929 54.4275C148.379 55.3438 147.21 56.7381 146.565 58.3602C147.22 60.0076 148.415 61.4193 150 62.3342L160.187 68.2154C162.662 69.6444 165.711 69.6444 168.187 68.2154L178.373 62.3342C179.958 61.4193 181.153 60.0075 181.808 58.3601C181.163 56.738 179.994 55.3438 178.444 54.4275L168.257 48.4062Z" fill="#333333"/>
<path d="M129.054 90.8814C128.485 92.8338 127.183 94.5272 125.373 95.5723L115.186 101.453C112.711 102.883 109.662 102.883 107.186 101.453L96.9999 95.5723C95.1897 94.5272 93.8878 92.8338 93.3189 90.8814C93.8878 88.929 95.1897 87.2357 96.9999 86.1905L107.186 80.3093C109.662 78.8803 112.711 78.8803 115.186 80.3093L125.373 86.1905C127.183 87.2357 128.485 88.929 129.054 90.8814Z" fill="#0DC639"/>
<path d="M212.667 109.144C212.667 130.024 225.659 141.624 246.075 141.624C266.491 141.624 278.323 130.024 278.323 112.392V109.376H263.011V112.624C263.011 120.744 257.211 127.936 246.075 127.936C234.939 127.936 227.979 120.744 227.979 109.376V89.424C227.979 78.056 234.939 70.864 246.075 70.864C257.211 70.864 263.011 78.056 263.011 86.176V88.496H278.323V86.408C278.323 68.776 266.491 57.176 246.075 57.176C225.659 57.176 212.667 68.776 212.667 89.656V109.144Z" fill="black"/>
<path d="M284.247 97.08L297.703 101.604C298.747 96.384 302.227 92.44 309.535 92.44C316.959 92.44 320.207 96.616 320.207 101.952V105.2H304.431C291.439 105.2 282.159 111.348 282.159 123.18C282.159 135.012 291.439 141.624 303.271 141.624C313.943 141.624 317.771 135.824 318.815 133.272H320.439V140H334.359V102.996C334.359 88.612 324.847 80.84 309.767 80.84C294.803 80.84 287.031 88.38 284.247 97.08ZM296.775 122.832C296.775 118.888 300.023 116.104 305.475 116.104H320.207V117.032C320.207 124.688 314.407 129.792 306.287 129.792C300.023 129.792 296.775 126.892 296.775 122.832Z" fill="black"/>
<path d="M342.853 98.588C342.853 109.956 352.365 114.132 364.429 116.452L367.445 117.032C374.637 118.424 377.885 120.164 377.885 123.876C377.885 127.588 374.637 130.488 367.909 130.488C361.181 130.488 355.729 127.704 354.221 119.352L340.765 122.832C342.737 134.896 352.829 141.624 367.909 141.624C382.525 141.624 392.037 134.78 392.037 122.716C392.037 110.652 382.293 107.404 369.301 104.852L366.285 104.272C360.253 103.112 357.005 101.488 357.005 97.66C357.005 94.18 360.021 91.976 365.589 91.976C371.157 91.976 375.101 94.296 376.493 100.56L389.717 96.5C386.933 87.22 378.465 80.84 365.589 80.84C351.901 80.84 342.853 87.22 342.853 98.588Z" fill="black"/>
<path d="M392.849 94.296H407.233V127.008C407.233 134.896 412.337 140 419.993 140H436.233V128.168H425.097C423.009 128.168 421.849 127.008 421.849 124.688V94.296H437.625V82.464H421.849V64.6H407.233V82.464H392.849V94.296Z" fill="black"/>
<path d="M459.081 58.8H444.465V140H459.081V58.8Z" fill="black"/>
<path d="M465.726 111.232C465.726 129.56 477.674 141.624 494.842 141.624C510.618 141.624 517.462 132.692 520.71 126.544L508.762 120.28C506.79 124.688 503.426 129.096 495.306 129.096C487.186 129.096 481.038 123.412 480.69 115.524H522.566V110.536C522.566 92.904 511.546 80.84 494.61 80.84C477.674 80.84 465.726 92.904 465.726 111.232ZM480.806 104.62C481.734 98.24 486.606 93.368 494.494 93.368C502.034 93.368 507.022 98.008 507.718 104.62H480.806Z" fill="black"/>
<path d="M533.016 58.8V140H570.136C584.056 140 594.032 131.648 594.032 117.96C594.032 105.896 586.144 101.256 580.344 99.632V98.472C586.144 96.732 593.568 92.208 593.568 80.376C593.568 67.152 583.824 58.8 569.672 58.8H533.016ZM548.328 72.72H568.048C574.544 72.72 578.952 76.432 578.952 82.464C578.952 88.496 574.544 92.208 568.048 92.208H548.328V72.72ZM548.328 106.128H568.28C575.008 106.128 579.416 109.84 579.416 116.104C579.416 122.368 575.008 126.08 568.28 126.08H548.328V106.128Z" fill="black"/>
<path d="M615.754 58.8H601.138V140H615.754V58.8Z" fill="black"/>
<path d="M622.398 111.232C622.398 130.024 635.39 141.624 652.558 141.624C669.726 141.624 682.718 130.024 682.718 111.232C682.718 92.44 669.726 80.84 652.558 80.84C635.39 80.84 622.398 92.44 622.398 111.232ZM637.014 111.232C637.014 100.096 643.51 93.6 652.558 93.6C661.606 93.6 668.102 100.096 668.102 111.232C668.102 122.368 661.606 128.864 652.558 128.864C643.51 128.864 637.014 122.368 637.014 111.232Z" fill="black"/>
<path d="M685.881 111.232C685.881 129.096 699.105 141.624 715.809 141.624C731.933 141.624 741.329 132.228 744.577 119.584L730.425 116.22C729.149 123.644 724.857 128.864 716.041 128.864C707.225 128.864 700.497 122.368 700.497 111.232C700.497 100.096 707.225 93.6 716.041 93.6C724.857 93.6 729.149 99.168 729.961 106.128L744.113 103.112C741.561 90.236 731.817 80.84 715.809 80.84C699.105 80.84 685.881 93.368 685.881 111.232Z" fill="black"/>
<path d="M810.78 82.464H789.204L765.308 103.576V58.8H750.692V140H765.308V121.324L773.312 114.48L792.336 140H810.316L783.752 105.548L810.78 82.464Z" fill="black"/>
</svg>
