<svg width="143" height="158" viewBox="0 0 143 158" fill="none" xmlns="http://www.w3.org/2000/svg">
<path d="M0.22977 91.1838C0.103945 91.7486 0.0384979 92.3315 0.0384979 92.9236V111.796C0.0384979 114.626 1.53393 117.245 3.97106 118.684L67.1191 155.97C69.6284 157.451 72.7447 157.451 75.254 155.97L138.402 118.684C140.839 117.245 142.335 114.626 142.335 111.796V92.9236C142.335 92.3315 142.269 91.7486 142.143 91.1838C141.49 91.8428 140.747 92.424 139.927 92.9081L76.7793 130.193C73.3291 132.23 69.044 132.23 65.5938 130.193L2.44577 92.9081C1.62587 92.424 0.88349 91.8428 0.22977 91.1838Z" fill="black"/>
<path fill-rule="evenodd" clip-rule="evenodd" d="M38.5889 37.2353L50.888 29.9735C51.8089 32.1236 53.4075 33.9617 55.5 35.1699L65.6865 41.0511C69.09 43.016 73.2831 43.016 76.6865 41.0511L86.8731 35.1699C88.9656 33.9617 90.5642 32.1236 91.4851 29.9735L103.784 37.2353C103.274 38.5133 103 39.8945 103 41.3143V53.6857C103 57.5754 105.054 61.1759 108.403 63.1551L118.589 69.1763C122.042 71.2171 126.331 71.2171 129.784 69.1763L139.97 63.1551C140.645 62.7561 141.268 62.2912 141.831 61.7714C142.159 62.6517 142.335 63.5955 142.335 64.564V83.436C142.335 86.2663 140.839 88.8859 138.402 90.3249L75.254 127.61C72.7447 129.092 69.6284 129.092 67.1191 127.61L3.97106 90.3249C1.53393 88.8859 0.0384979 86.2663 0.0384979 83.436V64.564C0.0384979 63.5955 0.213606 62.6517 0.541635 61.7714C1.10523 62.2912 1.72765 62.7561 2.40266 63.1551L12.5892 69.1763C16.0417 71.2171 20.3313 71.2171 23.7839 69.1763L33.9704 63.1551C37.3189 61.1759 39.3731 57.5754 39.3731 53.6857V41.3143C39.3731 39.8945 39.0994 38.5133 38.5889 37.2353ZM86.8731 63.5925L76.6865 57.7113C73.2831 55.7463 69.09 55.7463 65.6865 57.7113L55.5 63.5925C52.0966 65.5574 50 69.1888 50 73.1187V84.8811C50 88.8111 52.0966 92.4425 55.5 94.4074L65.6865 100.289C69.09 102.254 73.2831 102.254 76.6865 100.289L86.8731 94.4074C90.2765 92.4425 92.3731 88.8111 92.3731 84.8811V73.1187C92.3731 69.1888 90.2765 65.5574 86.8731 63.5925Z" fill="black"/>
<path d="M67.1865 1.0718C69.6617 -0.357266 72.7113 -0.357266 75.1865 1.0718L85.3731 6.95299C87.8483 8.38206 89.3731 11.0231 89.3731 13.8812V25.6436C89.3731 28.5017 87.8483 31.1427 85.3731 32.5718L75.1865 38.453C72.7113 39.8821 69.6617 39.8821 67.1865 38.453L57 32.5718C54.5248 31.1427 53 28.5017 53 25.6436V13.8812C53 11.0231 54.5248 8.38206 57 6.95299L67.1865 1.0718Z" fill="black"/>
<path d="M14.1157 28.4032C16.6267 26.919 19.7464 26.919 22.2573 28.4032L32.4439 34.4244C34.8791 35.8639 36.3731 38.4824 36.3731 41.3113V53.6827C36.3731 56.5115 34.8791 59.13 32.4439 60.5695L22.2573 66.5907C19.7464 68.0749 16.6267 68.0749 14.1157 66.5907L3.92921 60.5695C1.49397 59.13 0 56.5115 0 53.6827V41.3113C0 38.4824 1.49397 35.8639 3.92921 34.4244L14.1157 28.4032Z" fill="black"/>
<path d="M120.116 28.4062C122.627 26.922 125.746 26.922 128.257 28.4062L138.444 34.4275C140.879 35.8669 142.373 38.4855 142.373 41.3143V53.6857C142.373 56.5146 140.879 59.1331 138.444 60.5726L128.257 66.5938C125.746 68.078 122.627 68.078 120.116 66.5938L109.929 60.5726C107.494 59.1331 106 56.5146 106 53.6857V41.3143C106 38.4855 107.494 35.8669 109.929 34.4275L120.116 28.4062Z" fill="black"/>
<path d="M67.1865 60.3093C69.6617 58.8803 72.7113 58.8803 75.1865 60.3093L85.3731 66.1905C87.8483 67.6196 89.3731 70.2606 89.3731 73.1187V84.8811C89.3731 87.7393 87.8483 90.3803 85.3731 91.8093L75.1865 97.6905C72.7113 99.1196 69.6617 99.1196 67.1865 97.6905L57 91.8093C54.5248 90.3803 53 87.7393 53 84.8811V73.1187C53 70.2606 54.5248 67.6196 57 66.1905L67.1865 60.3093Z" fill="#00B42B"/>
<path d="M88.9324 11.2624C88.3119 13.0531 87.0643 14.5954 85.3731 15.5718L75.1866 21.453C72.7113 22.8821 69.6618 22.8821 67.1866 21.453L57 15.5718C55.3088 14.5954 54.0613 13.0531 53.4407 11.2624C54.0613 9.47168 55.3088 7.92943 57 6.95299L67.1866 1.0718C69.6618 -0.357266 72.7113 -0.357266 75.1866 1.0718L85.3731 6.95299C87.0643 7.92943 88.3119 9.47169 88.9324 11.2624Z" fill="#333333"/>
<path d="M22.2573 28.4062C19.7464 26.922 16.6267 26.922 14.1157 28.4062L3.92921 34.4275C2.34121 35.3661 1.15345 36.8062 0.519211 38.479C1.16313 40.1772 2.37734 41.6349 4.00001 42.5718L14.1865 48.453C16.6617 49.8821 19.7113 49.8821 22.1865 48.453L32.3731 42.5718C33.9957 41.635 35.2099 40.1772 35.8539 38.479C35.2196 36.8062 34.0319 35.3661 32.4439 34.4275L22.2573 28.4062Z" fill="#333333"/>
<path fill-rule="evenodd" clip-rule="evenodd" d="M38.589 37.2354L50.888 29.9735C51.8089 32.1236 53.4075 33.9617 55.5 35.1698L65.6866 41.051C69.09 43.016 73.2831 43.016 76.6866 41.051L86.8731 35.1698C88.9656 33.9617 90.5642 32.1236 91.4851 29.9735L103.784 37.2354C103.274 38.5133 103 39.8945 103 41.3143V53.6857C103 57.5753 105.054 61.1758 108.403 63.1551L118.589 69.1763C121.783 71.0641 125.693 71.2056 128.994 69.6009L76.6866 100.5C72.1865 103 68.6865 102 65.6865 100.5L13.379 69.6008C16.6802 71.2056 20.5902 71.0641 23.7839 69.1763L33.9704 63.1551C37.3189 61.1758 39.3731 57.5753 39.3731 53.6857V41.3143C39.3731 39.8945 39.0994 38.5133 38.589 37.2354ZM86.8731 63.5924L76.6866 57.7112C73.2831 55.7463 69.09 55.7463 65.6866 57.7112L55.5 63.5924C52.0966 65.5574 50 69.1888 50 73.1187V84.8811C50 88.811 52.0966 92.4424 55.5 94.4074L65.6866 100.289C69.09 102.254 73.2831 102.254 76.6866 100.289L86.8731 94.4074C90.2765 92.4424 92.3731 88.811 92.3731 84.8811V73.1187C92.3731 69.1888 90.2765 65.5574 86.8731 63.5924Z" fill="#333333"/>
<path d="M128.257 28.4062C125.746 26.922 122.627 26.922 120.116 28.4062L109.929 34.4275C108.379 35.3438 107.21 36.7381 106.565 38.3602C107.22 40.0076 108.415 41.4193 110 42.3342L120.187 48.2154C122.662 49.6444 125.711 49.6444 128.187 48.2154L138.373 42.3342C139.958 41.4193 141.153 40.0075 141.808 38.3601C141.163 36.738 139.994 35.3438 138.444 34.4275L128.257 28.4062Z" fill="#333333"/>
<path d="M89.0539 70.8814C88.485 72.8338 87.1831 74.5272 85.3729 75.5723L75.1864 81.4535C72.7112 82.8825 69.6616 82.8825 67.1864 81.4535L56.9999 75.5723C55.1897 74.5272 53.8878 72.8338 53.3189 70.8814C53.8878 68.929 55.1897 67.2357 56.9999 66.1905L67.1864 60.3093C69.6616 58.8803 72.7112 58.8803 75.1864 60.3093L85.3729 66.1905C87.1831 67.2357 88.485 68.929 89.0539 70.8814Z" fill="#0DC639"/>
</svg>
